<mxfile host="app.diagrams.net" modified="2023-11-20T00:55:40.802Z" agent="Mozilla/5.0 (Macintosh; Intel Mac OS X 10_15_7) AppleWebKit/537.36 (KHTML, like Gecko) Chrome/119.0.0.0 Safari/537.36" etag="1vacN95ebPbLXldlRVSt" version="22.1.3" type="device">
  <diagram name="Page-1" id="7y_mL-GzNgC5530pgmlS">
    <mxGraphModel dx="1489" dy="769" grid="1" gridSize="10" guides="1" tooltips="1" connect="1" arrows="1" fold="1" page="1" pageScale="1" pageWidth="4681" pageHeight="3300" math="0" shadow="0">
      <root>
        <mxCell id="0" />
        <mxCell id="1" parent="0" />
        <mxCell id="OcAPIhB8qyurILOyLWH6-26" value="Object" style="html=1;whiteSpace=wrap;" vertex="1" parent="1">
          <mxGeometry x="1360" y="50" width="150" height="40" as="geometry" />
        </mxCell>
        <mxCell id="OcAPIhB8qyurILOyLWH6-19" value="Object" style="html=1;whiteSpace=wrap;" vertex="1" parent="1">
          <mxGeometry x="840" y="50" width="130" height="40" as="geometry" />
        </mxCell>
        <mxCell id="OcAPIhB8qyurILOyLWH6-12" value="Object" style="html=1;whiteSpace=wrap;" vertex="1" parent="1">
          <mxGeometry x="510" y="50" width="100" height="40" as="geometry" />
        </mxCell>
        <mxCell id="OcAPIhB8qyurILOyLWH6-1" value="&lt;u&gt;:Console&lt;/u&gt;" style="shape=umlLifeline;perimeter=lifelinePerimeter;whiteSpace=wrap;html=1;container=0;dropTarget=0;collapsible=0;recursiveResize=0;outlineConnect=0;portConstraint=eastwest;newEdgeStyle={&quot;edgeStyle&quot;:&quot;elbowEdgeStyle&quot;,&quot;elbow&quot;:&quot;vertical&quot;,&quot;curved&quot;:0,&quot;rounded&quot;:0};" vertex="1" parent="1">
          <mxGeometry x="200" y="60" width="100" height="480" as="geometry" />
        </mxCell>
        <mxCell id="OcAPIhB8qyurILOyLWH6-2" value="" style="html=1;points=[];perimeter=orthogonalPerimeter;outlineConnect=0;targetShapes=umlLifeline;portConstraint=eastwest;newEdgeStyle={&quot;edgeStyle&quot;:&quot;elbowEdgeStyle&quot;,&quot;elbow&quot;:&quot;vertical&quot;,&quot;curved&quot;:0,&quot;rounded&quot;:0};" vertex="1" parent="OcAPIhB8qyurILOyLWH6-1">
          <mxGeometry x="45" y="70" width="10" height="330" as="geometry" />
        </mxCell>
        <mxCell id="OcAPIhB8qyurILOyLWH6-3" value="replaceSensor(oldSensorID,&lt;br style=&quot;border-color: var(--border-color);&quot;&gt;newSensorID)" style="html=1;verticalAlign=bottom;startArrow=oval;endArrow=block;startSize=8;edgeStyle=elbowEdgeStyle;elbow=vertical;curved=0;rounded=0;" edge="1" parent="OcAPIhB8qyurILOyLWH6-1" target="OcAPIhB8qyurILOyLWH6-2">
          <mxGeometry x="-0.0345" relative="1" as="geometry">
            <mxPoint x="-150" y="70" as="sourcePoint" />
            <Array as="points">
              <mxPoint x="-100" y="70" />
            </Array>
            <mxPoint as="offset" />
          </mxGeometry>
        </mxCell>
        <mxCell id="OcAPIhB8qyurILOyLWH6-4" value="&lt;u style=&quot;font-size: 13px;&quot;&gt;&lt;b style=&quot;font-size: 13px;&quot;&gt;342 Project: Iteration 2 (replaceSensor(..) Sequence Diagram)&lt;/b&gt;&lt;/u&gt;" style="text;strokeColor=none;fillColor=none;align=left;verticalAlign=top;spacingLeft=4;spacingRight=4;overflow=hidden;rotatable=0;points=[[0,0.5],[1,0.5]];portConstraint=eastwest;whiteSpace=wrap;html=1;fontSize=13;" vertex="1" parent="1">
          <mxGeometry x="90" y="10" width="450" height="26" as="geometry" />
        </mxCell>
        <mxCell id="OcAPIhB8qyurILOyLWH6-5" value="&lt;u&gt;:SensorRegistry&lt;/u&gt;" style="shape=umlLifeline;perimeter=lifelinePerimeter;whiteSpace=wrap;html=1;container=0;dropTarget=0;collapsible=0;recursiveResize=0;outlineConnect=0;portConstraint=eastwest;newEdgeStyle={&quot;edgeStyle&quot;:&quot;elbowEdgeStyle&quot;,&quot;elbow&quot;:&quot;vertical&quot;,&quot;curved&quot;:0,&quot;rounded&quot;:0};" vertex="1" parent="1">
          <mxGeometry x="340" y="60" width="120" height="480" as="geometry" />
        </mxCell>
        <mxCell id="OcAPIhB8qyurILOyLWH6-6" value="" style="html=1;points=[];perimeter=orthogonalPerimeter;outlineConnect=0;targetShapes=umlLifeline;portConstraint=eastwest;newEdgeStyle={&quot;edgeStyle&quot;:&quot;elbowEdgeStyle&quot;,&quot;elbow&quot;:&quot;vertical&quot;,&quot;curved&quot;:0,&quot;rounded&quot;:0};" vertex="1" parent="OcAPIhB8qyurILOyLWH6-5">
          <mxGeometry x="55" y="70" width="10" height="210" as="geometry" />
        </mxCell>
        <mxCell id="OcAPIhB8qyurILOyLWH6-7" value="getSensor(oldSensorID)" style="html=1;verticalAlign=bottom;endArrow=block;curved=0;rounded=0;" edge="1" parent="1" target="OcAPIhB8qyurILOyLWH6-6">
          <mxGeometry width="80" relative="1" as="geometry">
            <mxPoint x="255" y="150" as="sourcePoint" />
            <mxPoint x="390" y="150" as="targetPoint" />
          </mxGeometry>
        </mxCell>
        <mxCell id="OcAPIhB8qyurILOyLWH6-8" value="oldSensor" style="html=1;verticalAlign=bottom;endArrow=open;dashed=1;endSize=8;curved=0;rounded=0;" edge="1" parent="1">
          <mxGeometry relative="1" as="geometry">
            <mxPoint x="395" y="170" as="sourcePoint" />
            <mxPoint x="255" y="170" as="targetPoint" />
          </mxGeometry>
        </mxCell>
        <mxCell id="OcAPIhB8qyurILOyLWH6-10" value="&lt;u&gt;:Sensors&lt;/u&gt;" style="shape=umlLifeline;perimeter=lifelinePerimeter;whiteSpace=wrap;html=1;container=0;dropTarget=0;collapsible=0;recursiveResize=0;outlineConnect=0;portConstraint=eastwest;newEdgeStyle={&quot;edgeStyle&quot;:&quot;elbowEdgeStyle&quot;,&quot;elbow&quot;:&quot;vertical&quot;,&quot;curved&quot;:0,&quot;rounded&quot;:0};" vertex="1" parent="1">
          <mxGeometry x="500" y="60" width="100" height="480" as="geometry" />
        </mxCell>
        <mxCell id="OcAPIhB8qyurILOyLWH6-11" value="" style="html=1;points=[];perimeter=orthogonalPerimeter;outlineConnect=0;targetShapes=umlLifeline;portConstraint=eastwest;newEdgeStyle={&quot;edgeStyle&quot;:&quot;elbowEdgeStyle&quot;,&quot;elbow&quot;:&quot;vertical&quot;,&quot;curved&quot;:0,&quot;rounded&quot;:0};" vertex="1" parent="OcAPIhB8qyurILOyLWH6-10">
          <mxGeometry x="45" y="90" width="10" height="180" as="geometry" />
        </mxCell>
        <mxCell id="OcAPIhB8qyurILOyLWH6-13" value="oldSensor:=find&lt;br&gt;(oldSensorID)" style="html=1;verticalAlign=bottom;endArrow=block;curved=0;rounded=0;" edge="1" parent="1">
          <mxGeometry width="80" relative="1" as="geometry">
            <mxPoint x="405" y="160" as="sourcePoint" />
            <mxPoint x="545" y="160" as="targetPoint" />
          </mxGeometry>
        </mxCell>
        <mxCell id="OcAPIhB8qyurILOyLWH6-14" value="remove(oldSensor)" style="html=1;verticalAlign=bottom;endArrow=block;curved=0;rounded=0;" edge="1" parent="1">
          <mxGeometry width="80" relative="1" as="geometry">
            <mxPoint x="405" y="210" as="sourcePoint" />
            <mxPoint x="545" y="210" as="targetPoint" />
          </mxGeometry>
        </mxCell>
        <mxCell id="OcAPIhB8qyurILOyLWH6-15" value="&lt;u style=&quot;border-color: var(--border-color);&quot;&gt;:SensorLocationPairTable&lt;/u&gt;" style="shape=umlLifeline;perimeter=lifelinePerimeter;whiteSpace=wrap;html=1;container=0;dropTarget=0;collapsible=0;recursiveResize=0;outlineConnect=0;portConstraint=eastwest;newEdgeStyle={&quot;edgeStyle&quot;:&quot;elbowEdgeStyle&quot;,&quot;elbow&quot;:&quot;vertical&quot;,&quot;curved&quot;:0,&quot;rounded&quot;:0};" vertex="1" parent="1">
          <mxGeometry x="650" y="60" width="160" height="480" as="geometry" />
        </mxCell>
        <mxCell id="OcAPIhB8qyurILOyLWH6-16" value="" style="html=1;points=[];perimeter=orthogonalPerimeter;outlineConnect=0;targetShapes=umlLifeline;portConstraint=eastwest;newEdgeStyle={&quot;edgeStyle&quot;:&quot;elbowEdgeStyle&quot;,&quot;elbow&quot;:&quot;vertical&quot;,&quot;curved&quot;:0,&quot;rounded&quot;:0};" vertex="1" parent="OcAPIhB8qyurILOyLWH6-15">
          <mxGeometry x="75" y="290" width="10" height="80" as="geometry" />
        </mxCell>
        <mxCell id="OcAPIhB8qyurILOyLWH6-17" value=":&lt;u style=&quot;border-color: var(--border-color);&quot;&gt;SensorLocationPairs&lt;/u&gt;" style="shape=umlLifeline;perimeter=lifelinePerimeter;whiteSpace=wrap;html=1;container=1;dropTarget=0;collapsible=0;recursiveResize=0;outlineConnect=0;portConstraint=eastwest;newEdgeStyle={&quot;curved&quot;:0,&quot;rounded&quot;:0};" vertex="1" parent="1">
          <mxGeometry x="830" y="60" width="130" height="480" as="geometry" />
        </mxCell>
        <mxCell id="OcAPIhB8qyurILOyLWH6-18" value="" style="html=1;points=[];perimeter=orthogonalPerimeter;outlineConnect=0;targetShapes=umlLifeline;portConstraint=eastwest;newEdgeStyle={&quot;edgeStyle&quot;:&quot;elbowEdgeStyle&quot;,&quot;elbow&quot;:&quot;vertical&quot;,&quot;curved&quot;:0,&quot;rounded&quot;:0};" vertex="1" parent="OcAPIhB8qyurILOyLWH6-17">
          <mxGeometry x="60" y="310" width="10" height="40" as="geometry" />
        </mxCell>
        <mxCell id="OcAPIhB8qyurILOyLWH6-20" value="replaceSensor(oldSensor,newSensor)" style="html=1;verticalAlign=bottom;endArrow=block;curved=0;rounded=0;" edge="1" parent="1">
          <mxGeometry width="80" relative="1" as="geometry">
            <mxPoint x="255" y="369.62" as="sourcePoint" />
            <mxPoint x="725" y="369.62" as="targetPoint" />
          </mxGeometry>
        </mxCell>
        <mxCell id="OcAPIhB8qyurILOyLWH6-21" value="setSensor(newSensor)" style="html=1;verticalAlign=bottom;endArrow=block;curved=0;rounded=0;" edge="1" parent="1">
          <mxGeometry x="0.4921" width="80" relative="1" as="geometry">
            <mxPoint x="735" y="420" as="sourcePoint" />
            <mxPoint x="1050" y="420" as="targetPoint" />
            <mxPoint as="offset" />
          </mxGeometry>
        </mxCell>
        <mxCell id="OcAPIhB8qyurILOyLWH6-22" value="&lt;u style=&quot;border-color: var(--border-color);&quot;&gt;:SensorTemperaturePairTable&lt;/u&gt;" style="shape=umlLifeline;perimeter=lifelinePerimeter;whiteSpace=wrap;html=1;container=0;dropTarget=0;collapsible=0;recursiveResize=0;outlineConnect=0;portConstraint=eastwest;newEdgeStyle={&quot;edgeStyle&quot;:&quot;elbowEdgeStyle&quot;,&quot;elbow&quot;:&quot;vertical&quot;,&quot;curved&quot;:0,&quot;rounded&quot;:0};" vertex="1" parent="1">
          <mxGeometry x="1140" y="60" width="180" height="480" as="geometry" />
        </mxCell>
        <mxCell id="OcAPIhB8qyurILOyLWH6-23" value="" style="html=1;points=[];perimeter=orthogonalPerimeter;outlineConnect=0;targetShapes=umlLifeline;portConstraint=eastwest;newEdgeStyle={&quot;edgeStyle&quot;:&quot;elbowEdgeStyle&quot;,&quot;elbow&quot;:&quot;vertical&quot;,&quot;curved&quot;:0,&quot;rounded&quot;:0};" vertex="1" parent="OcAPIhB8qyurILOyLWH6-22">
          <mxGeometry x="85" y="370" width="10" height="80" as="geometry" />
        </mxCell>
        <mxCell id="OcAPIhB8qyurILOyLWH6-24" value=":&lt;u style=&quot;border-color: var(--border-color);&quot;&gt;SensorTemperaturePairs&lt;/u&gt;" style="shape=umlLifeline;perimeter=lifelinePerimeter;whiteSpace=wrap;html=1;container=1;dropTarget=0;collapsible=0;recursiveResize=0;outlineConnect=0;portConstraint=eastwest;newEdgeStyle={&quot;curved&quot;:0,&quot;rounded&quot;:0};" vertex="1" parent="1">
          <mxGeometry x="1340" y="60" width="150" height="480" as="geometry" />
        </mxCell>
        <mxCell id="OcAPIhB8qyurILOyLWH6-25" value="" style="html=1;points=[];perimeter=orthogonalPerimeter;outlineConnect=0;targetShapes=umlLifeline;portConstraint=eastwest;newEdgeStyle={&quot;edgeStyle&quot;:&quot;elbowEdgeStyle&quot;,&quot;elbow&quot;:&quot;vertical&quot;,&quot;curved&quot;:0,&quot;rounded&quot;:0};" vertex="1" parent="OcAPIhB8qyurILOyLWH6-24">
          <mxGeometry x="70" y="375" width="10" height="45" as="geometry" />
        </mxCell>
        <mxCell id="OcAPIhB8qyurILOyLWH6-30" value="sl:=find(oldSensor)" style="html=1;verticalAlign=bottom;endArrow=block;curved=0;rounded=0;" edge="1" parent="1">
          <mxGeometry width="80" relative="1" as="geometry">
            <mxPoint x="735" y="390" as="sourcePoint" />
            <mxPoint x="890" y="390" as="targetPoint" />
          </mxGeometry>
        </mxCell>
        <mxCell id="OcAPIhB8qyurILOyLWH6-39" value="removeSensor(oldSensor)" style="html=1;verticalAlign=bottom;endArrow=block;curved=0;rounded=0;" edge="1" parent="1">
          <mxGeometry width="80" relative="1" as="geometry">
            <mxPoint x="255" y="200" as="sourcePoint" />
            <mxPoint x="395" y="200" as="targetPoint" />
          </mxGeometry>
        </mxCell>
        <mxCell id="OcAPIhB8qyurILOyLWH6-41" value="getSensor(newSensorID)" style="html=1;verticalAlign=bottom;endArrow=block;curved=0;rounded=0;" edge="1" parent="1">
          <mxGeometry width="80" relative="1" as="geometry">
            <mxPoint x="255" y="239.99999999999994" as="sourcePoint" />
            <mxPoint x="394.9999999999999" y="239.99999999999994" as="targetPoint" />
          </mxGeometry>
        </mxCell>
        <mxCell id="OcAPIhB8qyurILOyLWH6-42" value="&lt;u&gt;s:Sensor&lt;/u&gt;" style="shape=umlLifeline;perimeter=lifelinePerimeter;whiteSpace=wrap;html=1;container=0;dropTarget=0;collapsible=0;recursiveResize=0;outlineConnect=0;portConstraint=eastwest;newEdgeStyle={&quot;edgeStyle&quot;:&quot;elbowEdgeStyle&quot;,&quot;elbow&quot;:&quot;vertical&quot;,&quot;curved&quot;:0,&quot;rounded&quot;:0};" vertex="1" parent="1">
          <mxGeometry x="600" y="240" width="80" height="300" as="geometry" />
        </mxCell>
        <mxCell id="OcAPIhB8qyurILOyLWH6-43" value="" style="html=1;points=[];perimeter=orthogonalPerimeter;outlineConnect=0;targetShapes=umlLifeline;portConstraint=eastwest;newEdgeStyle={&quot;edgeStyle&quot;:&quot;elbowEdgeStyle&quot;,&quot;elbow&quot;:&quot;vertical&quot;,&quot;curved&quot;:0,&quot;rounded&quot;:0};" vertex="1" parent="OcAPIhB8qyurILOyLWH6-42">
          <mxGeometry x="35" y="60" width="10" height="20" as="geometry" />
        </mxCell>
        <mxCell id="OcAPIhB8qyurILOyLWH6-44" value="[sensor not found] &lt;br&gt;newSensor:=create(sensorID,false)" style="html=1;verticalAlign=bottom;endArrow=block;curved=0;rounded=0;" edge="1" parent="1" source="OcAPIhB8qyurILOyLWH6-6">
          <mxGeometry width="80" relative="1" as="geometry">
            <mxPoint x="424.9999999999999" y="259.99999999999994" as="sourcePoint" />
            <mxPoint x="600" y="260" as="targetPoint" />
          </mxGeometry>
        </mxCell>
        <mxCell id="OcAPIhB8qyurILOyLWH6-45" value="add&lt;br&gt;(newSensor)" style="html=1;verticalAlign=bottom;endArrow=block;curved=0;rounded=0;" edge="1" parent="1" source="OcAPIhB8qyurILOyLWH6-43" target="OcAPIhB8qyurILOyLWH6-11">
          <mxGeometry width="80" relative="1" as="geometry">
            <mxPoint x="610" y="310" as="sourcePoint" />
            <mxPoint x="561.9999999999999" y="309.99999999999994" as="targetPoint" />
          </mxGeometry>
        </mxCell>
        <mxCell id="OcAPIhB8qyurILOyLWH6-46" value="newSensor" style="html=1;verticalAlign=bottom;endArrow=open;dashed=1;endSize=8;curved=0;rounded=0;" edge="1" parent="1">
          <mxGeometry relative="1" as="geometry">
            <mxPoint x="394.9999999999999" y="319.99999999999994" as="sourcePoint" />
            <mxPoint x="255" y="319.99999999999994" as="targetPoint" />
          </mxGeometry>
        </mxCell>
        <mxCell id="OcAPIhB8qyurILOyLWH6-47" value="replaceSensor(oldSensor,newSensor)" style="html=1;verticalAlign=bottom;endArrow=block;curved=0;rounded=0;" edge="1" parent="1" target="OcAPIhB8qyurILOyLWH6-23">
          <mxGeometry width="80" relative="1" as="geometry">
            <mxPoint x="255" y="450" as="sourcePoint" />
            <mxPoint x="1115" y="450" as="targetPoint" />
          </mxGeometry>
        </mxCell>
        <mxCell id="OcAPIhB8qyurILOyLWH6-48" value="sl:&lt;u style=&quot;border-color: var(--border-color);&quot;&gt;SensorLocationPair&lt;/u&gt;" style="shape=umlLifeline;perimeter=lifelinePerimeter;whiteSpace=wrap;html=1;container=1;dropTarget=0;collapsible=0;recursiveResize=0;outlineConnect=0;portConstraint=eastwest;newEdgeStyle={&quot;curved&quot;:0,&quot;rounded&quot;:0};" vertex="1" parent="1">
          <mxGeometry x="990" y="60" width="130" height="480" as="geometry" />
        </mxCell>
        <mxCell id="OcAPIhB8qyurILOyLWH6-49" value="" style="html=1;points=[];perimeter=orthogonalPerimeter;outlineConnect=0;targetShapes=umlLifeline;portConstraint=eastwest;newEdgeStyle={&quot;edgeStyle&quot;:&quot;elbowEdgeStyle&quot;,&quot;elbow&quot;:&quot;vertical&quot;,&quot;curved&quot;:0,&quot;rounded&quot;:0};" vertex="1" parent="OcAPIhB8qyurILOyLWH6-48">
          <mxGeometry x="60" y="320" width="10" height="50" as="geometry" />
        </mxCell>
        <mxCell id="OcAPIhB8qyurILOyLWH6-51" value="st:&lt;u style=&quot;border-color: var(--border-color);&quot;&gt;SensorLocationPair&lt;/u&gt;" style="shape=umlLifeline;perimeter=lifelinePerimeter;whiteSpace=wrap;html=1;container=1;dropTarget=0;collapsible=0;recursiveResize=0;outlineConnect=0;portConstraint=eastwest;newEdgeStyle={&quot;curved&quot;:0,&quot;rounded&quot;:0};" vertex="1" parent="1">
          <mxGeometry x="1530" y="60" width="130" height="480" as="geometry" />
        </mxCell>
        <mxCell id="OcAPIhB8qyurILOyLWH6-52" value="" style="html=1;points=[];perimeter=orthogonalPerimeter;outlineConnect=0;targetShapes=umlLifeline;portConstraint=eastwest;newEdgeStyle={&quot;edgeStyle&quot;:&quot;elbowEdgeStyle&quot;,&quot;elbow&quot;:&quot;vertical&quot;,&quot;curved&quot;:0,&quot;rounded&quot;:0};" vertex="1" parent="OcAPIhB8qyurILOyLWH6-51">
          <mxGeometry x="60" y="410" width="10" height="50" as="geometry" />
        </mxCell>
        <mxCell id="OcAPIhB8qyurILOyLWH6-53" value="st:=find(oldSensor)" style="html=1;verticalAlign=bottom;endArrow=block;curved=0;rounded=0;" edge="1" parent="1">
          <mxGeometry width="80" relative="1" as="geometry">
            <mxPoint x="1235" y="460" as="sourcePoint" />
            <mxPoint x="1410" y="460" as="targetPoint" />
          </mxGeometry>
        </mxCell>
        <mxCell id="OcAPIhB8qyurILOyLWH6-54" value="setSensor(newSensor)" style="html=1;verticalAlign=bottom;endArrow=block;curved=0;rounded=0;" edge="1" parent="1">
          <mxGeometry x="0.4921" width="80" relative="1" as="geometry">
            <mxPoint x="1235" y="490" as="sourcePoint" />
            <mxPoint x="1590" y="490" as="targetPoint" />
            <mxPoint as="offset" />
          </mxGeometry>
        </mxCell>
      </root>
    </mxGraphModel>
  </diagram>
</mxfile>
